<?xml version="1.0" encoding="utf-8"?>
<!-- Generator: Adobe Illustrator 22.0.0, SVG Export Plug-In . SVG Version: 6.00 Build 0)  -->
<svg version="1.1" id="Layer_1" xmlns="http://www.w3.org/2000/svg" xmlns:xlink="http://www.w3.org/1999/xlink" x="0px" y="0px"
	 viewBox="0 0 1920 1080" style="enable-background:new 0 0 1920 1080;" xml:space="preserve">
<style type="text/css">
	.st0{fill:#D3D3D3;}
	.st1{fill:#8DC73D;}
</style>
<g>
	<g>
		<path class="st0" d="M1292.6,722.8h12.9v-12.9V559.6v-12.9h-12.9h-102.3c-6-20.6-14.2-40.5-24.5-59.4l72.2-72.2l9.1-9.1l-9.1-9.1
			l-106.3-106.3l-9.1-9.1l-9.1,9.1l-72.5,72.5c-17.9-9.6-36.7-17.4-56.1-23.2V239v-12.9h-12.9H821.7h-12.9V239v100.7
			c-18.4,5.5-36.3,12.8-53.3,21.7l-71-71l-9.1-9.1l-9.1,9.1L560,396.8l-9.1,9.1l9.1,9.1l69.5,69.5c-10.3,18.5-18.6,37.9-24.7,57.9
			h-99.2h-12.9v12.9v150.3v12.9h12.9h98c6.3,21.6,15,42.4,26,62.2L560,850.1l-9.1,9.1l9.1,9.1l106.3,106.3l9.1,9.1l9.1-9.1l71-71
			c18.3,9.6,37.6,17.3,57.6,23v99.5v12.9H826h150.3h12.9v-12.9V924c17.9-5.7,35.2-13,51.8-21.9l72.5,72.5l9.1,9.1l9.1-9.1
			l106.3-106.3l9.1-9.1l-9.1-9.1l-72.2-72.2c9.6-17.6,17.3-36.1,23.2-55.1L1292.6,722.8L1292.6,722.8z M1079.4,632.6
			c0,100.6-81.9,182.5-182.5,182.5s-182.5-81.9-182.5-182.5S796.2,450,896.9,450S1079.4,531.9,1079.4,632.6z"/>
	</g>
	<g>
		<path class="st1" d="M1071.6,245.1c74.7-32.6,165.5-125.2,196.8-173.7c39.4-61.1,82.8-55.7,82.8,23.1
			c0,114.5-88.2,219.9-176.4,289.1L1071.6,245.1z"/>
		<path class="st1" d="M726,245.1c-74.7-32.6-165.5-125.2-196.8-173.7c-39.4-61.1-82.8-55.7-82.8,23.1
			c0,114.5,88.2,219.9,176.4,289.1L726,245.1z"/>
		<path class="st0" d="M529.3,523.2c0-204.1,165.4-369.5,369.5-369.5s369.5,165.4,369.5,369.5H529.3z"/>
		<g>
			<rect x="492" y="523.2" class="st1" width="813.6" height="131.7"/>
			<polygon class="st1" points="832.9,708 832.9,133 964.6,133 964.6,708 898.8,761.2 			"/>
			<path class="st0" d="M925.9,216.4c0,15-12.2,27.1-27.1,27.1c-15,0-27.1-12.2-27.1-27.1c0-15,12.2-27.1,27.1-27.1
				C913.8,189.2,925.9,201.4,925.9,216.4z"/>
			<path class="st0" d="M925.9,340.6c0,15-12.2,27.1-27.1,27.1c-15,0-27.1-12.2-27.1-27.1c0-15,12.2-27.1,27.1-27.1
				C913.8,313.4,925.9,325.6,925.9,340.6z"/>
			<path class="st0" d="M925.9,464.8c0,15-12.2,27.1-27.1,27.1c-15,0-27.1-12.2-27.1-27.1c0-15,12.2-27.1,27.1-27.1
				C913.8,437.7,925.9,449.8,925.9,464.8z"/>
			<path class="st0" d="M925.9,589c0,15-12.2,27.1-27.1,27.1c-15,0-27.1-12.2-27.1-27.1c0-15,12.2-27.1,27.1-27.1
				C913.8,561.9,925.9,574.1,925.9,589z"/>
			<path class="st0" d="M799,589c0,15-12.2,27.1-27.1,27.1c-15,0-27.1-12.2-27.1-27.1c0-15,12.2-27.1,27.1-27.1
				C786.9,561.9,799,574.1,799,589z"/>
			<path class="st0" d="M688.8,589c0,15-12.2,27.1-27.1,27.1c-15,0-27.1-12.2-27.1-27.1c0-15,12.2-27.1,27.1-27.1
				C676.6,561.9,688.8,574.1,688.8,589z"/>
			<path class="st0" d="M578.5,589c0,15-12.2,27.1-27.1,27.1c-15,0-27.1-12.2-27.1-27.1c0-15,12.2-27.1,27.1-27.1
				C566.3,561.9,578.5,574.1,578.5,589z"/>
			<path class="st0" d="M997.6,589c0,15,12.2,27.1,27.1,27.1c15,0,27.1-12.2,27.1-27.1c0-15-12.2-27.1-27.1-27.1
				C1009.7,561.9,997.6,574.1,997.6,589z"/>
			<path class="st0" d="M1107.9,589c0,15,12.2,27.1,27.1,27.1c15,0,27.1-12.2,27.1-27.1c0-15-12.2-27.1-27.1-27.1
				C1120,561.9,1107.9,574.1,1107.9,589z"/>
			<path class="st0" d="M1218.2,589c0,15,12.2,27.1,27.1,27.1c15,0,27.1-12.2,27.1-27.1c0-15-12.2-27.1-27.1-27.1
				C1230.3,561.9,1218.2,574.1,1218.2,589z"/>
		</g>
	</g>
</g>
</svg>
