<?xml version="1.0" encoding="utf-8"?>
<!-- Generator: Adobe Illustrator 22.0.0, SVG Export Plug-In . SVG Version: 6.00 Build 0)  -->
<svg version="1.1" id="Layer_1" xmlns="http://www.w3.org/2000/svg" xmlns:xlink="http://www.w3.org/1999/xlink" x="0px" y="0px"
	 viewBox="0 0 1920 1080" style="enable-background:new 0 0 1920 1080;" xml:space="preserve">
<style type="text/css">
	.st0{fill:#FFFFFF;}
	.st1{fill:#D3D3D3;}
	.st2{fill:#8DC73D;}
</style>
<g>
	<circle class="st0" cx="960" cy="529" r="495"/>
	<g>
		<path class="st1" d="M1223.3,650h8.7v-8.6V540.6V532h-8.7h-68.6c-4-13.8-9.5-27.1-16.4-39.8l48.4-48.4l6.1-6.1l-6.1-6.1
			l-71.3-71.2l-6.1-6.1l-6.1,6.1l-48.6,48.6c-12-6.4-24.6-11.7-37.6-15.5v-66.8V318h-8.6H907.6H899v8.6v67.5
			c-12.3,3.7-24.3,8.6-35.7,14.5l-47.6-47.6l-6.1-6.1l-6.1,6.1l-71.2,71.3l-6.1,6.1l6.1,6.1l46.6,46.6
			c-6.9,12.4-12.5,25.4-16.6,38.8h-65.7H688v8.6v100.7v8.6h8.6h65.5c4.2,14.5,10,28.4,17.4,41.7L733,736.2l-6.1,6.1l6.1,6.1l71,71.2
			l6.1,6.1l6.1-6.1l47.4-47.6c12.2,6.4,25.1,11.6,38.5,15.4v65.9v8.6h8.6h100.7h8.6v-8.6v-68.5c12-3.8,23.6-8.7,34.7-14.7l48.6,48.6
			l6.1,6.1l6.1-6.1l71.2-71.3l6.1-6.1l-6.1-6.1l-48.4-48.4c6.4-11.8,11.6-24.2,15.5-36.9L1223.3,650L1223.3,650z M1080.5,589.9
			c0,67.3-54.8,122.1-122.1,122.1s-122.1-54.8-122.1-122.1s54.7-122.2,122.1-122.2S1080.5,522.6,1080.5,589.9z"/>
	</g>
	<g>
		<path class="st2" d="M1075.6,328.1c50-21.8,110.7-83.8,131.7-116.2c26.4-40.9,55.4-37.3,55.4,15.5c0,76.6-59,147.1-118,193.4
			L1075.6,328.1z"/>
		<path class="st2" d="M844.4,328.1c-50-21.8-110.7-83.8-131.7-116.2c-26.4-40.9-55.4-37.3-55.4,15.5c0,76.6,59,147.1,118,193.4
			L844.4,328.1z"/>
		<path class="st1" d="M712.8,514.5c0-136.6,110.7-247.2,247.2-247.2s247.2,110.7,247.2,247.2H712.8z"/>
		<g>
			<rect x="688.3" y="514.5" class="st2" width="544" height="88"/>
			<polygon class="st2" points="916.3,638.2 916.3,253.5 1004.3,253.5 1004.3,638.2 960.3,673.8 			"/>
			<path class="st1" d="M978.1,308.9c0,10-8.2,18.1-18.1,18.1c-10,0-18.1-8.2-18.1-18.1c0-10,8.2-18.1,18.1-18.1
				C970,290.7,978.1,298.9,978.1,308.9z"/>
			<path class="st1" d="M978.1,392c0,10-8.2,18.1-18.1,18.1c-10,0-18.1-8.2-18.1-18.1c0-10,8.2-18.1,18.1-18.1
				C970,373.8,978.1,382,978.1,392z"/>
			<path class="st1" d="M978.1,475.2c0,10-8.2,18.1-18.1,18.1c-10,0-18.1-8.2-18.1-18.1c0-10,8.2-18.1,18.1-18.1
				C970,457,978.1,465.1,978.1,475.2z"/>
			<path class="st1" d="M978.1,558.3c0,10-8.2,18.1-18.1,18.1c-10,0-18.1-8.2-18.1-18.1c0-10,8.2-18.1,18.1-18.1
				C970,540.1,978.1,548.3,978.1,558.3z"/>
			<path class="st1" d="M893.2,558.3c0,10-8.2,18.1-18.1,18.1c-10,0-18.1-8.2-18.1-18.1c0-10,8.2-18.1,18.1-18.1
				C885.1,540.1,893.2,548.3,893.2,558.3z"/>
			<path class="st1" d="M819.5,558.3c0,10-8.2,18.1-18.1,18.1c-10,0-18.1-8.2-18.1-18.1c0-10,8.2-18.1,18.1-18.1
				C811.3,540.1,819.5,548.3,819.5,558.3z"/>
			<path class="st1" d="M745.7,558.3c0,10-8.2,18.1-18.1,18.1c-10,0-18.1-8.2-18.1-18.1c0-10,8.2-18.1,18.1-18.1
				S745.7,548.3,745.7,558.3z"/>
			<path class="st1" d="M1026.1,558.3c0,10,8.2,18.1,18.1,18.1c10,0,18.1-8.2,18.1-18.1c0-10-8.2-18.1-18.1-18.1
				C1034.2,540.1,1026.1,548.3,1026.1,558.3z"/>
			<path class="st1" d="M1099.9,558.3c0,10,8.2,18.1,18.1,18.1c10,0,18.1-8.2,18.1-18.1c0-10-8.2-18.1-18.1-18.1
				C1108,540.1,1099.9,548.3,1099.9,558.3z"/>
			<path class="st1" d="M1173.7,558.3c0,10,8.2,18.1,18.1,18.1c10,0,18.1-8.2,18.1-18.1c0-10-8.2-18.1-18.1-18.1
				C1181.8,540.1,1173.7,548.3,1173.7,558.3z"/>
		</g>
	</g>
</g>
</svg>
